<svg width="1584" height="396" viewBox="0 0 1584 396" fill="none" xmlns="http://www.w3.org/2000/svg">
<rect width="1584" height="396" fill="#838383"/>
<rect width="1584" height="396" fill="#2979FF"/>
<path d="M111.24 264.88C100.68 264.88 90.48 263.68 80.64 261.28C70.8 258.88 62.7 255.76 56.34 251.92L70.02 220.96C76.02 224.44 82.68 227.26 90 229.42C97.44 231.46 104.64 232.48 111.6 232.48C115.68 232.48 118.86 232.24 121.14 231.76C123.54 231.16 125.28 230.38 126.36 229.42C127.44 228.34 127.98 227.08 127.98 225.64C127.98 223.36 126.72 221.56 124.2 220.24C121.68 218.92 118.32 217.84 114.12 217C110.04 216.04 105.54 215.08 100.62 214.12C95.7 213.04 90.72 211.66 85.68 209.98C80.76 208.3 76.2 206.08 72 203.32C67.92 200.56 64.62 196.96 62.1 192.52C59.58 187.96 58.32 182.32 58.32 175.6C58.32 167.8 60.48 160.72 64.8 154.36C69.24 147.88 75.78 142.72 84.42 138.88C93.18 135.04 104.04 133.12 117 133.12C125.52 133.12 133.92 134.02 142.2 135.82C150.48 137.62 157.92 140.38 164.52 144.1L151.74 174.88C145.5 171.76 139.44 169.42 133.56 167.86C127.8 166.3 122.16 165.52 116.64 165.52C112.56 165.52 109.32 165.88 106.92 166.6C104.52 167.32 102.78 168.28 101.7 169.48C100.74 170.68 100.26 172 100.26 173.44C100.26 175.6 101.52 177.34 104.04 178.66C106.56 179.86 109.86 180.88 113.94 181.72C118.14 182.56 122.7 183.46 127.62 184.42C132.66 185.38 137.64 186.7 142.56 188.38C147.48 190.06 151.98 192.28 156.06 195.04C160.26 197.8 163.62 201.4 166.14 205.84C168.66 210.28 169.92 215.8 169.92 222.4C169.92 230.08 167.7 237.16 163.26 243.64C158.94 250 152.46 255.16 143.82 259.12C135.18 262.96 124.32 264.88 111.24 264.88ZM182.561 262V136H225.041V262H182.561ZM245.49 262V136H306.15C317.91 136 328.05 137.92 336.57 141.76C345.21 145.6 351.87 151.12 356.55 158.32C361.23 165.4 363.57 173.8 363.57 183.52C363.57 193.24 361.23 201.64 356.55 208.72C351.87 215.68 345.21 221.02 336.57 224.74C328.05 228.46 317.91 230.32 306.15 230.32H269.07L287.97 212.86V262H245.49ZM320.91 262L289.95 216.1H334.95L366.27 262H320.91ZM287.97 217.54L269.07 198.28H303.45C309.33 198.28 313.65 196.96 316.41 194.32C319.29 191.68 320.73 188.08 320.73 183.52C320.73 178.96 319.29 175.36 316.41 172.72C313.65 170.08 309.33 168.76 303.45 168.76H269.07L287.97 149.5V217.54ZM365.932 262L421.012 136H462.772L517.852 262H473.932L433.252 156.16H449.812L409.132 262H365.932ZM398.692 240.04L409.492 209.44H467.452L478.252 240.04H398.692ZM559.128 264.88C549.288 264.88 540.408 263.32 532.488 260.2C524.568 256.96 517.968 252.28 512.688 246.16L535.548 219.16C538.908 223.24 542.208 226.36 545.448 228.52C548.688 230.56 552.048 231.58 555.528 231.58C564.648 231.58 569.208 226.36 569.208 215.92V168.04H526.368V136H611.148V213.4C611.148 230.68 606.708 243.58 597.828 252.1C588.948 260.62 576.048 264.88 559.128 264.88ZM690.927 264.88C671.607 264.88 656.547 259.66 645.747 249.22C634.947 238.78 629.547 224.14 629.547 205.3V136H672.027V204.04C672.027 213.64 673.767 220.48 677.247 224.56C680.727 228.52 685.407 230.5 691.287 230.5C697.287 230.5 701.967 228.52 705.327 224.56C708.807 220.48 710.547 213.64 710.547 204.04V136H752.307V205.3C752.307 224.14 746.907 238.78 736.107 249.22C725.307 259.66 710.247 264.88 690.927 264.88ZM771.78 262V136H814.26V229.06H871.14V262H771.78ZM923.158 262L978.238 136H1020L1075.08 262H1031.16L990.478 156.16H1007.04L966.358 262H923.158ZM955.918 240.04L966.718 209.44H1024.68L1035.48 240.04H955.918ZM1081.86 262V136H1142.52C1154.28 136 1164.42 137.92 1172.94 141.76C1181.58 145.6 1188.24 151.12 1192.92 158.32C1197.6 165.4 1199.94 173.8 1199.94 183.52C1199.94 193.24 1197.6 201.64 1192.92 208.72C1188.24 215.68 1181.58 221.02 1172.94 224.74C1164.42 228.46 1154.28 230.32 1142.52 230.32H1105.44L1124.34 212.86V262H1081.86ZM1157.28 262L1126.32 216.1H1171.32L1202.64 262H1157.28ZM1124.34 217.54L1105.44 198.28H1139.82C1145.7 198.28 1150.02 196.96 1152.78 194.32C1155.66 191.68 1157.1 188.08 1157.1 183.52C1157.1 178.96 1155.66 175.36 1152.78 172.72C1150.02 170.08 1145.7 168.76 1139.82 168.76H1105.44L1124.34 149.5V217.54ZM1255.58 189.64H1311.02V221.68H1255.58V189.64ZM1258.46 262H1215.98V136H1318.4V168.04H1258.46V262ZM1331.82 262V136H1374.3V262H1331.82ZM1394.75 262V136H1429.67L1493.75 212.68H1477.55V136H1518.95V262H1484.03L1419.95 185.32H1436.15V262H1394.75Z" fill="white"/>
</svg>
